<svg width="860" height="146" xmlns="http://www.w3.org/2000/svg" xmlns:xlink="http://www.w3.org/1999/xlink" xml:space="preserve" overflow="hidden"><defs><clipPath id="clip0"><rect x="177" y="167" width="860" height="146"/></clipPath></defs><g clip-path="url(#clip0)" transform="translate(-177 -167)"><path d="M22.6115-23.5817 35.2979-23.5817C45.8948-23.5817 56.2677-31.3428 56.2677-39.7009 56.2677-45.447 51.3424-50.9693 41.5665-50.9693L17.3878-50.9693C15.9698-50.9693 15.149-50.9693 15.149-49.5514 15.149-48.6559 15.8207-48.6559 17.3132-48.6559 18.2833-48.6559 19.6265-48.5813 20.522-48.5067 21.7161-48.3574 22.1638-48.1335 22.1638-47.3126 22.1638-47.0142 22.0892-46.7903 21.8653-45.8948L11.8654-5.8208C11.1192-2.9104 10.97-2.3134 5.07454-2.3134 3.8059-2.3134 2.98503-2.3134 2.98503-0.895507 2.98503 0 3.88053 0 4.10441 0 6.19392 0 11.4923-0.223875 13.5818-0.223875 15.149-0.223875 16.7908-0.14925 18.3579-0.14925 19.9997-0.14925 21.6415 0 23.2086 0 23.7309 0 24.7011 0 24.7011-1.49251 24.7011-2.3134 24.0295-2.3134 22.6115-2.3134 19.8504-2.3134 17.7609-2.3134 17.7609-3.65665 17.7609-4.10441 17.9101-4.47753 17.9848-4.92529L22.6115-23.5817ZM27.9846-45.8201C28.6562-48.432 28.8055-48.6559 32.0144-48.6559L39.1784-48.6559C45.3723-48.6559 49.3275-46.641 49.3275-41.4918 49.3275-38.5814 47.835-32.1637 44.9246-29.4771 41.1934-26.119 36.7158-25.522 33.4323-25.522L22.9101-25.522 27.9846-45.8201Z" fill="#FFFFFF" transform="matrix(1 0 0 1.00269 178.376 270.089)"/><path d="M24.7011 17.9101C24.7011 17.6862 24.7011 17.537 23.4324 16.2684 14.1043 6.86558 11.7162-7.23867 11.7162-18.6564 11.7162-31.6412 14.552-44.6261 23.7309-53.9543 24.7011-54.8498 24.7011-54.9991 24.7011-55.223 24.7011-55.7453 24.4026-55.9692 23.9548-55.9692 23.2086-55.9692 16.4923-50.8947 12.0893-41.4172 8.28345-33.2084 7.38794-24.925 7.38794-18.6564 7.38794-12.8356 8.20882-3.8059 12.3132 4.62678 16.7908 13.8057 23.2086 18.6564 23.9548 18.6564 24.4026 18.6564 24.7011 18.4326 24.7011 17.9101Z" fill="#FFFFFF" transform="matrix(1 0 0 1.00269 236.652 270.089)"/><path d="M11.8654-5.8208C11.1192-2.9104 10.97-2.3134 5.07454-2.3134 3.8059-2.3134 2.98503-2.3134 2.98503-0.895507 2.98503 0 3.65665 0 5.07454 0L29.7756 0C45.2978 0 59.999-15.746 59.999-32.089 59.999-42.6112 53.6558-50.9693 42.462-50.9693L17.3878-50.9693C15.9698-50.9693 15.149-50.9693 15.149-49.5514 15.149-48.6559 15.8207-48.6559 17.3132-48.6559 18.2833-48.6559 19.6265-48.5813 20.522-48.5067 21.7161-48.3574 22.1638-48.1335 22.1638-47.3126 22.1638-47.0142 22.0892-46.7903 21.8653-45.8948L11.8654-5.8208ZM27.9846-45.8201C28.6562-48.432 28.8055-48.6559 32.0144-48.6559L39.9993-48.6559C47.3126-48.6559 53.5066-44.7007 53.5066-34.8501 53.5066-31.1935 52.014-18.9549 45.6709-10.7461 43.5067-7.98492 37.6113-2.3134 28.4323-2.3134L19.9997-2.3134C18.9549-2.3134 18.8057-2.3134 18.3579-2.38802 17.6116-2.46265 17.3878-2.53727 17.3878-3.13428 17.3878-3.35815 17.3878-3.5074 17.7609-4.85067L27.9846-45.8201Z" fill="#FFFFFF" transform="matrix(1 0 0 1.00269 265.673 270.089)"/><path d="M21.5668-18.6564C21.5668-24.4772 20.7459-33.5069 16.6415-41.9396 12.164-51.1185 5.74617-55.9692 4.99992-55.9692 4.55216-55.9692 4.25366-55.6707 4.25366-55.223 4.25366-54.9991 4.25366-54.8498 5.67155-53.5066 12.9848-46.1186 17.2385-34.2531 17.2385-18.6564 17.2385-5.89542 14.4773 7.23867 5.22379 16.6415 4.25366 17.537 4.25366 17.6862 4.25366 17.9101 4.25366 18.3579 4.55216 18.6564 4.99992 18.6564 5.74617 18.6564 12.4625 13.5818 16.8654 4.10441 20.6713-4.10441 21.5668-12.3879 21.5668-18.6564Z" fill="#FFFFFF" transform="matrix(1 0 0 1.00269 329.53 270.089)"/><path d="M51.2678-24.4026C52.3872-24.4026 53.805-24.4026 53.805-25.8951 53.805-27.3876 52.3872-27.3876 51.3424-27.3876L6.64168-27.3876C5.59692-27.3876 4.17903-27.3876 4.17903-25.8951 4.17903-24.4026 5.59692-24.4026 6.71631-24.4026L51.2678-24.4026ZM51.3424-9.92521C52.3872-9.92521 53.805-9.92521 53.805-11.4177 53.805-12.9102 52.3872-12.9102 51.2678-12.9102L6.71631-12.9102C5.59692-12.9102 4.17903-12.9102 4.17903-11.4177 4.17903-9.92521 5.59692-9.92521 6.64168-9.92521L51.3424-9.92521Z" fill="#FFFFFF" transform="matrix(1 0 0 1.00269 379.283 270.089)"/><path d="M17.1196-34.7299C17.1196-36.2019 17.0106-36.2565 15.5385-36.2565 13.3031-34.0756 10.4135-32.7671 5.23402-32.7671L5.23402-30.9679C6.70609-30.9679 9.65022-30.9679 12.8125-32.44L12.8125-4.47072C12.8125-2.45344 12.6489-1.7992 7.46934-1.7992L5.56114-1.7992 5.56114 0C7.79653-0.163561 12.4853-0.163561 14.9388-0.163561 17.3922-0.163561 22.1356-0.163561 24.3709 0L24.3709-1.7992 22.4627-1.7992C17.2832-1.7992 17.1196-2.45344 17.1196-4.47072L17.1196-34.7299Z" fill="#FFFFFF" transform="matrix(1 0 0 1.00269 525.509 240.628)"/><path d="M771.725 477.101 919.246 477.101 919.246 480.086 771.725 480.086Z" fill="#FFFFFF" transform="matrix(1 0 0 1.00269 -305.497 -228.497)"/><path d="M29.932-19.9002C30.9134-19.9002 31.295-19.9002 31.9493-20.3363 32.5491-20.827 32.7671-21.5903 32.7671-21.972 32.7671-23.4986 31.4041-23.4986 30.4772-23.4986L17.0651-23.4986C8.66885-23.4986 2.23536-14.8842 2.23536-8.28721 2.23536-2.94413 6.05183 0.545209 11.1223 0.545209 17.992 0.545209 25.4613-6.05183 25.4613-14.1755 25.4613-17.1196 24.4254-18.8643 23.8257-19.9002L29.932-19.9002ZM11.1768-0.981378C8.45077-0.981378 6.05183-2.78057 6.05183-6.76061 6.05183-9.0505 7.41489-19.9002 16.1927-19.9002 21.4812-19.9002 21.4812-15.8656 21.4812-14.7207 21.4812-9.10502 17.6103-0.981378 11.1768-0.981378Z" fill="#FFFFFF" transform="matrix(1 0 0 1.00269 466.228 306.049)"/><path d="M22.4627 46.0703 12.1582 24.9161C11.8855 24.3164 11.6675 24.0438 11.2313 24.0438 11.0132 24.0438 10.9042 24.0983 10.359 24.4799L4.79785 28.3509C4.03455 28.8416 4.03455 29.1142 4.03455 29.2778 4.03455 29.6049 4.30716 30.0411 4.79785 30.0411 5.01593 30.0411 5.12498 30.0411 5.77923 29.4959 6.488 29.0597 7.57845 28.2419 8.50529 27.5877L19.9547 51.0862C20.4454 52.0676 20.6634 52.0676 21.2086 52.0676 22.1356 52.0676 22.2991 51.795 22.7353 50.9227L49.0689-0.163561C49.5051-0.926858 49.5051-1.0359 49.5051-1.25399 49.5051-1.90824 48.9599-2.50797 48.2511-2.50797 47.5423-2.50797 47.3242-2.0718 46.9426-1.36303L22.4627 46.0703Z" fill="#FFFFFF" transform="matrix(1 0 0 1.00269 501.293 260.792)"/><path d="M855.065 485.524 919.251 485.524 919.251 487.978 855.065 487.978Z" fill="#FFFFFF" transform="matrix(1 0 0 1.00269 -305.497 -228.497)"/><path d="M15.3749-11.1223C16.2472-11.9401 18.5372-13.7393 19.4095-14.5026 22.7898-17.6103 26.0065-20.6089 26.0065-25.5703 26.0065-32.0584 20.5544-36.2565 13.7393-36.2565 7.19681-36.2565 2.88961-31.295 2.88961-26.4427 2.88961-23.7712 5.01593-23.3895 5.77923-23.3895 6.92414-23.3895 8.61433-24.2073 8.61433-26.2791 8.61433-29.1142 5.88827-29.1142 5.23402-29.1142 6.81513-33.0943 10.468-34.4573 13.1396-34.4573 18.21-34.4573 20.827-30.1501 20.827-25.5703 20.827-19.9002 16.847-15.7566 10.4135-9.15954L3.54386-2.0718C2.88961-1.47207 2.88961-1.36303 2.88961 0L24.4254 0 26.0065-9.75926 24.3164-9.75926C24.1528-8.66885 23.7166-5.94279 23.0624-4.90689 22.7353-4.47072 18.5917-4.47072 17.7194-4.47072L8.01461-4.47072 15.3749-11.1223Z" fill="#FFFFFF" transform="matrix(1 0 0 1.00269 549.568 306.049)"/><path d="M15.484-19.9002 21.7538-19.9002C20.6089-14.9388 19.6276-10.9042 19.6276-6.86962 19.6276-6.488 19.6276-4.1436 20.2273-2.18084 20.936 0.10904 21.4812 0.545209 22.4627 0.545209 23.6621 0.545209 24.9161-0.490689 24.9161-1.7992 24.9161-2.18084 24.8616-2.28988 24.6435-2.78057 23.4986-5.28854 22.6808-7.90557 22.6808-12.3762 22.6808-13.6303 22.6808-15.9201 23.4986-19.9002L30.0956-19.9002C30.9679-19.9002 31.5677-19.9002 32.1129-20.3363 32.7671-20.936 32.9307-21.6448 32.9307-21.972 32.9307-23.4986 31.5677-23.4986 30.6408-23.4986L10.9587-23.4986C9.81378-23.4986 7.74201-23.4986 5.07045-20.8815 3.10769-18.9188 1.58111-16.4108 1.58111-16.0292 1.58111-15.5385 1.96276-15.3749 2.39892-15.3749 2.94413-15.3749 3.05317-15.5385 3.3803-15.9746 6.05183-19.9002 9.26858-19.9002 10.5225-19.9002L13.6848-19.9002C12.1036-14.1209 9.21406-7.52386 7.19681-3.54386 6.81513-2.72605 6.26992-1.63563 6.26992-1.14494 6.26992 0 7.19681 0.545209 8.06913 0.545209 10.1409 0.545209 10.6861-1.52659 11.831-5.99731L15.484-19.9002Z" fill="#FFFFFF" transform="matrix(1 0 0 1.00269 578.531 306.049)"/><path d="M34.7755 0.2985C31.8651 1.04476 29.4771 3.28353 27.6115 7.08941 25.8204 10.6715 25.2981 12.9848 23.8802 23.5817 22.0892 37.2381 21.4176 43.656 20.522 56.4916 20.2235 60.8945 19.8504 65.5959 19.7012 66.9392 18.731 77.4612 16.7908 81.0436 12.164 81.1182 11.1192 81.1182 9.10433 80.521 8.20882 79.9984L7.61183 79.6255 8.43271 79.1775C10.7461 77.9092 10.8954 74.9985 8.65654 73.6557 7.23867 72.8348 5.37304 73.2822 4.47753 74.8494 3.88053 75.7448 3.95516 77.611 4.55216 78.8047 5.89542 81.4164 9.40279 83.0582 13.0595 82.8345 18.5071 82.461 22.6862 77.312 24.4772 68.8795 24.925 66.5661 26.6413 54.2528 27.4622 46.7903 28.2831 39.9247 28.6562 35.671 29.2532 26.3429 30.4473 10.2983 31.0442 6.64168 32.9845 3.88053 34.6263 1.64176 37.7606 1.11938 41.0441 2.68652L42.0142 3.13428 41.1934 3.65665C39.4023 4.62678 38.8053 6.49243 39.7009 7.98492 41.0441 10.1491 43.8053 10.1491 45.1485 7.98492 45.5216 7.38794 45.5962 7.01478 45.5216 6.04467 45.3723 4.47753 44.9246 3.58203 43.8053 2.46265 41.7157 0.373125 37.8352-0.522382 34.7755 0.2985Z" fill="#FFFFFF" transform="matrix(1 0 0 1.00269 634.365 209.812)"/><path d="M9.10502-4.30716C8.61433-2.23536 8.50529-1.7992 4.47072-1.7992 3.43482-1.7992 2.78057-1.7992 2.78057-0.763297 2.78057 0 3.48934 0 4.4162 0L23.1714 0C34.6754 0 46.1247-11.0132 46.1247-23.1714 46.1247-31.5132 40.5636-37.2379 32.44-37.2379L13.3577-37.2379C12.3762-37.2379 11.6675-37.2379 11.6675-36.2019 11.6675-35.4386 12.3217-35.4386 13.2486-35.4386 15.0478-35.4386 16.6289-35.4386 16.6289-34.5663 16.6289-34.3482 16.5744-34.2937 16.4108-33.5849L9.10502-4.30716ZM21.1541-33.4214C21.6448-35.2751 21.6994-35.4386 23.9347-35.4386L30.5317-35.4386C36.9108-35.4386 41.2178-31.7857 41.2178-25.1342 41.2178-23.335 40.4546-14.4481 35.7112-8.34173 33.3123-5.28854 28.6235-1.7992 22.1901-1.7992L14.0664-1.7992C13.5757-1.90824 13.4122-1.90824 13.4122-2.28988 13.4122-2.72605 13.5212-3.16222 13.6303-3.48934L21.1541-33.4214Z" fill="#FFFFFF" transform="matrix(1 0 0 1.00269 684.117 231.452)"/><path d="M38.1102-12.3762C38.9825-12.3762 40.182-12.3762 40.182-13.6303 40.182-14.8842 38.9825-14.8842 38.1102-14.8842L6.86962-14.8842C5.99731-14.8842 4.79785-14.8842 4.79785-13.6303 4.79785-12.3762 5.99731-12.3762 6.86962-12.3762L38.1102-12.3762Z" fill="#FFFFFF" transform="matrix(1 0 0 1.00269 669.608 296.37)"/><path d="M29.4413-14.9388C26.2246-18.8098 25.7884-19.2459 23.8802-20.6634 21.3722-22.5717 18.0465-24.0438 14.4481-24.0438 7.79653-24.0438 3.21674-18.21 3.21674-11.722 3.21674-5.34306 7.74201 0.545209 14.23 0.545209 18.7007 0.545209 23.9347-1.7992 28.46-8.55981 31.6767-4.68881 32.1129-4.25264 34.0211-2.83509 36.529-0.926858 39.8548 0.545209 43.4532 0.545209 50.1048 0.545209 54.6846-5.28854 54.6846-11.7765 54.6846-18.1555 50.1593-24.0438 43.6713-24.0438 39.2006-24.0438 33.9666-21.6994 29.4413-14.9388ZM31.0769-12.9215C33.1488-16.3563 37.6195-21.972 44.053-21.972 49.8867-21.972 53.158-16.6834 53.158-11.7765 53.158-6.488 49.1234-2.39892 44.3256-2.39892 39.5277-2.39892 36.311-6.37896 31.0769-12.9215ZM26.8243-10.5771C24.7525-7.14229 20.2818-1.52659 13.8483-1.52659 8.01461-1.52659 4.74333-6.81513 4.74333-11.722 4.74333-17.0106 8.7779-21.0996 13.5757-21.0996 18.3736-21.0996 21.5903-17.1196 26.8243-10.5771Z" fill="#FFFFFF" transform="matrix(1 0 0 1.00269 714.661 296.37)"/><path d="M13.955-17.2385C16.1191-17.2385 21.6415-17.3878 25.3727-18.9549 30.5965-21.1937 30.9696-25.5966 30.9696-26.6413 30.9696-29.9248 28.1339-32.9845 22.9847-32.9845 14.7012-32.9845 3.43278-25.7458 3.43278-12.6863 3.43278-5.07454 7.83566 0.820882 15.149 0.820882 25.8204 0.820882 32.089-7.08941 32.089-7.98492 32.089-8.43271 31.6412-8.95507 31.1935-8.95507 30.8204-8.95507 30.6711-8.80581 30.2234-8.20882 24.3279-0.820882 16.1937-0.820882 15.2982-0.820882 9.47742-0.820882 8.80581-7.08941 8.80581-9.47742 8.80581-10.3729 8.88044-12.6863 9.99985-17.2385L13.955-17.2385ZM10.4476-18.8803C13.358-30.2234 21.0444-31.3428 22.9847-31.3428 26.4921-31.3428 28.507-29.1786 28.507-26.6413 28.507-18.8803 16.5669-18.8803 13.5073-18.8803L10.4476-18.8803Z" fill="#FFFFFF" transform="matrix(1 0 0 1.00269 788.437 270.089)"/><path d="M38.1102-12.3762C38.9825-12.3762 40.182-12.3762 40.182-13.6303 40.182-14.8842 38.9825-14.8842 38.1102-14.8842L6.86962-14.8842C5.99731-14.8842 4.79785-14.8842 4.79785-13.6303 4.79785-12.3762 5.99731-12.3762 6.86962-12.3762L38.1102-12.3762Z" fill="#FFFFFF" transform="matrix(1 0 0 1.00269 823.181 233.821)"/><path d="M10.9996-15.9882 15.4567-15.9882C16.2745-15.9882 16.847-15.9882 16.847-17.0106 16.847-17.6239 16.3154-17.6239 15.5794-17.6239L11.4085-17.6239 12.8397-23.2669C13.0032-23.8802 13.0032-24.1255 13.0032-24.1664 13.0032-25.1478 12.2264-25.5567 11.5721-25.5567 11.0814-25.5567 10.0182-25.2705 9.65022-23.962L8.05545-17.6239 3.63928-17.6239C2.78057-17.6239 2.73968-17.583 2.57612-17.4604 2.37166-17.2968 2.2081-16.7652 2.2081-16.5607 2.33077-15.9882 2.69879-15.9882 3.5166-15.9882L7.64658-15.9882 5.23402-6.33807C4.98867-5.39758 4.66155-4.00729 4.66155-3.5166 4.66155-1.14494 6.78787 0.408909 9.28219 0.408909 13.9846 0.408909 16.7652-5.19312 16.7652-5.88827 16.7652-6.01094 16.6834-6.46074 15.9882-6.46074 15.4567-6.46074 15.3749-6.25628 15.1704-5.76559 13.7802-2.69879 11.4494-0.940484 9.44575-0.940484 7.9328-0.940484 7.89189-2.45344 7.89189-2.98503 7.89189-3.5575 7.89189-3.63928 8.09636-4.4162L10.9996-15.9882Z" fill="#FFFFFF" transform="matrix(1 0 0 1.00269 894.55 211.471)"/><path d="M21.9992-7.64658 20.4863-7.64658C20.4045-7.07409 19.9956-4.37531 19.3822-3.92551 19.096-3.68017 15.7838-3.68017 15.2114-3.68017L7.56477-3.68017 12.7988-7.9328C14.1891-9.03688 17.8284-11.6539 19.096-12.8806 20.3227-14.1073 21.9992-16.1927 21.9992-19.096 21.9992-24.2073 17.3785-27.1923 11.8992-27.1923 6.6243-27.1923 2.94413-23.7166 2.94413-19.8729 2.94413-17.7875 4.70244-17.5421 5.15224-17.5421 6.1745-17.5421 7.36037-18.2782 7.36037-19.7502 7.36037-20.6498 6.82876-21.9583 5.02956-21.9583 5.97005-24.0438 8.46439-25.5976 11.2858-25.5976 15.5794-25.5976 17.8692-22.4082 17.8692-19.096 17.8692-16.1927 15.9474-13.2077 13.0851-10.5907L3.39393-1.71741C2.98503-1.30851 2.94413-1.26761 2.94413 0L20.7316 0 21.9992-7.64658Z" fill="#FFFFFF" transform="matrix(1 0 0 1.00269 914.046 194.265)"/><path d="M1181.91 446.221 1266.06 446.221 1266.06 448.675 1181.91 448.675Z" fill="#FFFFFF" transform="matrix(1 0 0 1.00269 -305.497 -228.497)"/><path d="M21.9992-7.64658 20.4863-7.64658C20.4045-7.07409 19.9956-4.37531 19.3822-3.92551 19.096-3.68017 15.7838-3.68017 15.2114-3.68017L7.56477-3.68017 12.7988-7.9328C14.1891-9.03688 17.8284-11.6539 19.096-12.8806 20.3227-14.1073 21.9992-16.1927 21.9992-19.096 21.9992-24.2073 17.3785-27.1923 11.8992-27.1923 6.6243-27.1923 2.94413-23.7166 2.94413-19.8729 2.94413-17.7875 4.70244-17.5421 5.15224-17.5421 6.1745-17.5421 7.36037-18.2782 7.36037-19.7502 7.36037-20.6498 6.82876-21.9583 5.02956-21.9583 5.97005-24.0438 8.46439-25.5976 11.2858-25.5976 15.5794-25.5976 17.8692-22.4082 17.8692-19.096 17.8692-16.1927 15.9474-13.2077 13.0851-10.5907L3.39393-1.71741C2.98503-1.30851 2.94413-1.26761 2.94413 0L20.7316 0 21.9992-7.64658Z" fill="#FFFFFF" transform="matrix(1 0 0 1.00269 876.415 262.035)"/><path d="M25.475-14.7207C25.9657-14.7207 27.7239-14.7207 27.7239-16.3972 27.7239-17.6239 26.579-17.6239 25.8838-17.6239L14.8025-17.6239C8.13727-17.6239 2.98503-11.4085 2.98503-6.41985 2.98503-2.2081 6.29718 0.408909 10.3863 0.408909 16.0292 0.408909 21.8766-4.4162 21.8766-10.3863 21.8766-12.2264 21.3041-13.6984 20.6089-14.7207L25.475-14.7207ZM10.468-0.940484C9.07772-0.940484 6.13362-1.51296 6.13362-5.39758 6.13362-8.05545 7.52386-14.7207 14.1482-14.7207 16.5198-14.7207 18.6462-13.9029 18.6462-10.7543 18.6462-9.5684 18.1146-6.01094 15.9882-3.59838 14.4345-1.88098 12.3081-0.940484 10.468-0.940484Z" fill="#FFFFFF" transform="matrix(1 0 0 1.00269 901.404 262.035)"/><path d="M21.9992-7.64658 20.4863-7.64658C20.4045-7.07409 19.9956-4.37531 19.3822-3.92551 19.096-3.68017 15.7838-3.68017 15.2114-3.68017L7.56477-3.68017 12.7988-7.9328C14.1891-9.03688 17.8284-11.6539 19.096-12.8806 20.3227-14.1073 21.9992-16.1927 21.9992-19.096 21.9992-24.2073 17.3785-27.1923 11.8992-27.1923 6.6243-27.1923 2.94413-23.7166 2.94413-19.8729 2.94413-17.7875 4.70244-17.5421 5.15224-17.5421 6.1745-17.5421 7.36037-18.2782 7.36037-19.7502 7.36037-20.6498 6.82876-21.9583 5.02956-21.9583 5.97005-24.0438 8.46439-25.5976 11.2858-25.5976 15.5794-25.5976 17.8692-22.4082 17.8692-19.096 17.8692-16.1927 15.9474-13.2077 13.0851-10.5907L3.39393-1.71741C2.98503-1.30851 2.94413-1.26761 2.94413 0L20.7316 0 21.9992-7.64658Z" fill="#FFFFFF" transform="matrix(1 0 0 1.00269 932.174 250.266)"/><path d="M38.5068-50.9693C38.5068-51.0439 38.5068-51.7902 37.5367-51.7902 36.4173-51.7902 29.3279-51.1185 28.0592-50.9693 27.4622-50.8947 27.0145-50.5215 27.0145-49.5514 27.0145-48.6559 27.6861-48.6559 28.8055-48.6559 32.3875-48.6559 32.5368-48.1335 32.5368-47.3873L32.3129-45.8948 27.8354-28.2084C26.4921-30.9696 24.3279-32.9845 20.9698-32.9845 12.2386-32.9845 2.98503-22.0145 2.98503-11.1192 2.98503-4.10441 7.08941 0.820882 12.9102 0.820882 14.4027 0.820882 18.134 0.522382 22.6115-4.77604 23.2086-1.64176 25.8204 0.820882 29.4025 0.820882 32.0144 0.820882 33.7308-0.895507 34.9248-3.28353 36.1934-5.97005 37.1636-10.5222 37.1636-10.6715 37.1636-11.4177 36.4919-11.4177 36.2681-11.4177 35.5218-11.4177 35.4472-11.1192 35.2233-10.0745 33.9546-5.22379 32.6114-0.820882 29.5518-0.820882 27.5368-0.820882 27.313-2.76115 27.313-4.25366 27.313-6.04467 27.4622-6.56706 27.7607-7.83566L38.5068-50.9693ZM22.9847-8.88044C22.6115-7.5372 22.6115-7.38794 21.4922-6.1193 18.2087-2.01489 15.149-0.820882 13.0595-0.820882 9.32823-0.820882 8.28345-4.92529 8.28345-7.83566 8.28345-11.567 10.6715-20.7459 12.3879-24.1787 14.7012-28.5816 18.0594-31.3428 21.0444-31.3428 25.8951-31.3428 26.9398-25.2234 26.9398-24.7757 26.9398-24.3279 26.7906-23.8802 26.7159-23.507L22.9847-8.88044Z" fill="#FFFFFF" transform="matrix(1 0 0 1.00269 972.158 270.089)"/><path d="M15.3729-29.8503 22.3877-29.8503C23.8802-29.8503 24.6265-29.8503 24.6265-31.3428 24.6265-32.1637 23.8802-32.1637 22.5369-32.1637L15.9698-32.1637C18.6564-42.7605 19.0295-44.253 19.0295-44.7007 19.0295-45.9694 18.134-46.7156 16.8654-46.7156 16.6415-46.7156 14.552-46.641 13.8804-44.0291L10.97-32.1637 3.95516-32.1637C2.46265-32.1637 1.71639-32.1637 1.71639-30.7457 1.71639-29.8503 2.3134-29.8503 3.8059-29.8503L10.3729-29.8503C4.99992-8.65654 4.70142-7.38794 4.70142-6.04467 4.70142-2.01489 7.5372 0.820882 11.567 0.820882 19.1788 0.820882 23.4324-10.0745 23.4324-10.6715 23.4324-11.4177 22.8354-11.4177 22.5369-11.4177 21.8653-11.4177 21.7907-11.1938 21.4176-10.3729 18.2087-2.6119 14.2535-0.820882 11.7162-0.820882 10.1491-0.820882 9.40279-1.79101 9.40279-4.25366 9.40279-6.04467 9.55206-6.56706 9.85058-7.83566L15.3729-29.8503Z" fill="#FFFFFF" transform="matrix(1 0 0 1.00269 1011 270.089)"/></g></svg>