<svg width="157" height="41" xmlns="http://www.w3.org/2000/svg" xmlns:xlink="http://www.w3.org/1999/xlink" xml:space="preserve" overflow="hidden"><defs><clipPath id="clip0"><rect x="561" y="339" width="157" height="41"/></clipPath></defs><g clip-path="url(#clip0)" transform="translate(-561 -339)"><path d="M566.359 361.866 569.394 361.866C571.886 361.866 574.379 360.023 574.379 357.964 574.379 356.555 573.187 355.273 570.911 355.273L565.329 355.273C564.986 355.273 564.824 355.273 564.824 355.616 564.824 355.797 564.986 355.797 565.257 355.797 566.359 355.797 566.359 355.941 566.359 356.14 566.359 356.176 566.359 356.284 566.287 356.555L563.848 366.273C563.686 366.905 563.65 367.086 562.385 367.086 562.042 367.086 561.861 367.086 561.861 367.411 561.861 367.61 562.024 367.61 562.132 367.61 562.476 367.61 562.837 367.574 563.18 367.574L565.293 367.574C565.637 367.574 566.016 367.61 566.359 367.61 566.504 367.61 566.702 367.61 566.702 367.267 566.702 367.086 566.54 367.086 566.269 367.086 565.185 367.086 565.167 366.96 565.167 366.779 565.167 366.689 565.185 366.562 565.203 366.472L566.359 361.866ZM567.66 356.501C567.822 355.833 567.894 355.797 568.599 355.797L570.387 355.797C571.742 355.797 572.862 356.23 572.862 357.585 572.862 358.055 572.627 359.59 571.796 360.421 571.489 360.746 570.622 361.432 568.978 361.432L566.431 361.432 567.66 356.501Z" fill="#FFFFFF"/><path d="M580.739 371.999C580.739 371.945 580.739 371.909 580.432 371.602 578.626 369.777 577.614 366.797 577.614 363.112 577.614 359.608 578.463 356.591 580.559 354.46 580.739 354.297 580.739 354.261 580.739 354.207 580.739 354.099 580.649 354.063 580.577 354.063 580.342 354.063 578.861 355.363 577.976 357.133 577.055 358.958 576.639 360.89 576.639 363.112 576.639 364.72 576.892 366.869 577.831 368.802 578.897 370.969 580.378 372.144 580.577 372.144 580.649 372.144 580.739 372.107 580.739 371.999Z" fill="#FFFFFF"/><path d="M584.583 366.273C584.42 366.905 584.384 367.086 583.12 367.086 582.776 367.086 582.596 367.086 582.596 367.411 582.596 367.61 582.704 367.61 583.065 367.61L588.791 367.61C592.44 367.61 595.998 363.835 595.998 359.807 595.998 357.206 594.445 355.273 591.862 355.273L586.064 355.273C585.721 355.273 585.558 355.273 585.558 355.616 585.558 355.797 585.721 355.797 585.992 355.797 587.094 355.797 587.094 355.941 587.094 356.14 587.094 356.176 587.094 356.284 587.021 356.555L584.583 366.273ZM588.394 356.501C588.557 355.833 588.629 355.797 589.333 355.797L591.32 355.797C593.018 355.797 594.572 356.718 594.572 359.211 594.572 360.114 594.21 363.257 592.458 365.244 591.952 365.84 590.58 367.086 588.502 367.086L586.443 367.086C586.19 367.086 586.154 367.086 586.046 367.068 585.847 367.05 585.829 367.014 585.829 366.869 585.829 366.743 585.865 366.634 585.901 366.472L588.394 356.501Z" fill="#FFFFFF"/><path d="M602.017 363.112C602.017 361.739 601.836 359.5 600.825 357.404 599.759 355.237 598.278 354.063 598.079 354.063 598.007 354.063 597.916 354.099 597.916 354.207 597.916 354.261 597.916 354.297 598.223 354.605 600.03 356.429 601.041 359.409 601.041 363.094 601.041 366.598 600.192 369.615 598.097 371.746 597.916 371.909 597.916 371.945 597.916 371.999 597.916 372.107 598.007 372.144 598.079 372.144 598.314 372.144 599.795 370.843 600.68 369.073 601.601 367.23 602.017 365.28 602.017 363.112Z" fill="#FFFFFF"/><path d="M621.011 361.757C621.264 361.757 621.589 361.757 621.589 361.432 621.589 361.089 621.282 361.089 621.011 361.089L610.372 361.089C610.119 361.089 609.794 361.089 609.794 361.414 609.794 361.757 610.101 361.757 610.372 361.757L621.011 361.757ZM621.011 365.117C621.264 365.117 621.589 365.117 621.589 364.792 621.589 364.449 621.282 364.449 621.011 364.449L610.372 364.449C610.119 364.449 609.794 364.449 609.794 364.774 609.794 365.117 610.101 365.117 610.372 365.117L621.011 365.117Z" fill="#FFFFFF"/><path d="M636.316 350.146C636.713 350.146 636.749 350.146 636.749 349.803 636.749 347.978 635.774 346.28 633.588 346.28 631.529 346.28 629.939 348.141 629.939 350.381 629.939 352.765 631.782 354.517 633.787 354.517 635.936 354.517 636.749 352.566 636.749 352.187 636.749 352.079 636.659 352.006 636.55 352.006 636.406 352.006 636.37 352.097 636.334 352.187 635.864 353.704 634.654 354.12 633.895 354.12 633.137 354.12 631.312 353.614 631.312 350.489L631.312 350.146 636.316 350.146ZM631.33 349.803C631.475 346.967 633.064 346.642 633.57 346.642 635.503 346.642 635.611 349.189 635.629 349.803L631.33 349.803Z" fill="#FFFFFF"/><path d="M640.275 350.128C640.275 348.376 640.998 346.732 642.389 346.732 642.533 346.732 642.569 346.732 642.641 346.75 642.497 346.822 642.208 346.931 642.208 347.418 642.208 347.942 642.623 348.141 642.912 348.141 643.274 348.141 643.635 347.906 643.635 347.418 643.635 346.877 643.147 346.371 642.37 346.371 640.835 346.371 640.311 348.033 640.203 348.376L640.185 348.376 640.185 346.371 637.764 346.569 637.764 347.093C638.993 347.093 639.137 347.22 639.137 348.105L639.137 353C639.137 353.813 638.939 353.813 637.764 353.813L637.764 354.337C638.27 354.3 639.264 354.3 639.806 354.3 640.293 354.3 641.576 354.3 641.991 354.337L641.991 353.813 641.63 353.813C640.311 353.813 640.275 353.614 640.275 352.964L640.275 350.128Z" fill="#FFFFFF"/><path d="M647.243 347.075 649.284 347.075 649.284 346.551 647.207 346.551 647.207 344.438C647.207 342.812 648.038 341.982 648.778 341.982 648.923 341.982 649.194 342.018 649.411 342.126 649.338 342.144 648.887 342.307 648.887 342.83 648.887 343.246 649.176 343.535 649.591 343.535 650.025 343.535 650.314 343.246 650.314 342.812 650.314 342.144 649.663 341.62 648.796 341.62 647.532 341.62 646.105 342.596 646.105 344.438L646.105 346.551 644.696 346.551 644.696 347.075 646.105 347.075 646.105 353C646.105 353.813 645.906 353.813 644.732 353.813L644.732 354.337C645.238 354.3 646.232 354.3 646.773 354.3 647.261 354.3 648.544 354.3 648.959 354.337L648.959 353.813 648.598 353.813C647.279 353.813 647.243 353.614 647.243 352.964L647.243 347.075Z" fill="#FFFFFF"/><path d="M656.671 358.726C656.671 358.672 656.671 358.635 656.364 358.328 654.558 356.504 653.546 353.524 653.546 349.839 653.546 346.335 654.395 343.318 656.491 341.187 656.671 341.024 656.671 340.988 656.671 340.934 656.671 340.826 656.581 340.789 656.509 340.789 656.274 340.789 654.793 342.09 653.908 343.86 652.986 345.684 652.571 347.617 652.571 349.839 652.571 351.446 652.824 353.596 653.763 355.529 654.829 357.696 656.31 358.87 656.509 358.87 656.581 358.87 656.671 358.834 656.671 358.726Z" fill="#FFFFFF"/><path d="M665.666 346.273C665.558 346.731 665.534 346.827 664.643 346.827 664.414 346.827 664.269 346.827 664.269 347.056 664.269 347.225 664.426 347.225 664.631 347.225L668.773 347.225C671.314 347.225 673.843 344.792 673.843 342.107 673.843 340.264 672.614 339 670.82 339L666.606 339C666.389 339 666.232 339 666.232 339.229 666.232 339.397 666.377 339.397 666.581 339.397 666.979 339.397 667.328 339.397 667.328 339.59 667.328 339.638 667.316 339.65 667.28 339.807L665.666 346.273ZM668.328 339.843C668.436 339.434 668.448 339.397 668.942 339.397L670.399 339.397C671.808 339.397 672.759 340.204 672.759 341.673 672.759 342.071 672.59 344.034 671.543 345.382 671.013 346.057 669.977 346.827 668.556 346.827L666.762 346.827C666.654 346.803 666.618 346.803 666.618 346.719 666.618 346.623 666.642 346.526 666.666 346.454L668.328 339.843Z" fill="#FFFFFF"/><path d="M659.485 349.46 678.677 349.46 678.677 350.182 659.485 350.182Z" fill="#FFFFFF"/><path d="M664.23 352.774C664.23 352.533 664.23 352.437 663.977 352.437 663.82 352.437 663.808 352.449 663.688 352.618L659.846 358.193 659.846 358.591 663.242 358.591 663.242 359.59C663.242 360.036 663.206 360.168 662.279 360.168L662.002 360.168 662.002 360.565C663.026 360.529 663.05 360.529 663.736 360.529 664.422 360.529 664.446 360.529 665.47 360.565L665.47 360.168 665.193 360.168C664.266 360.168 664.23 360.036 664.23 359.59L664.23 358.591 665.506 358.591 665.506 358.193 664.23 358.193 664.23 352.774ZM663.327 353.75 663.327 358.193 660.268 358.193 663.327 353.75Z" fill="#FFFFFF"/><path d="M671.771 356.724C671.771 355.436 671.638 354.653 671.241 353.882 670.711 352.822 669.736 352.558 669.073 352.558 667.556 352.558 667.002 353.69 666.834 354.027 666.4 354.906 666.376 356.098 666.376 356.724 666.376 357.519 666.412 358.735 666.99 359.698 667.544 360.59 668.435 360.818 669.073 360.818 669.651 360.818 670.687 360.638 671.289 359.446 671.735 358.579 671.771 357.507 671.771 356.724ZM669.073 360.481C668.664 360.481 667.833 360.288 667.58 359.024 667.448 358.338 667.448 357.206 667.448 356.58 667.448 355.749 667.448 354.906 667.58 354.243 667.833 353.015 668.772 352.895 669.073 352.895 669.483 352.895 670.314 353.099 670.555 354.195 670.699 354.858 670.699 355.761 670.699 356.58 670.699 357.29 670.699 358.374 670.555 359.048 670.302 360.313 669.471 360.481 669.073 360.481Z" fill="#FFFFFF"/><path d="M678.168 356.724C678.168 355.436 678.035 354.653 677.638 353.882 677.108 352.822 676.133 352.558 675.471 352.558 673.953 352.558 673.399 353.69 673.231 354.027 672.797 354.906 672.773 356.098 672.773 356.724 672.773 357.519 672.809 358.735 673.387 359.698 673.941 360.59 674.832 360.818 675.471 360.818 676.049 360.818 677.084 360.638 677.686 359.446 678.132 358.579 678.168 357.507 678.168 356.724ZM675.471 360.481C675.061 360.481 674.23 360.288 673.977 359.024 673.845 358.338 673.845 357.206 673.845 356.58 673.845 355.749 673.845 354.906 673.977 354.243 674.23 353.015 675.169 352.895 675.471 352.895 675.88 352.895 676.711 353.099 676.952 354.195 677.096 354.858 677.096 355.761 677.096 356.58 677.096 357.29 677.096 358.374 676.952 359.048 676.699 360.313 675.868 360.481 675.471 360.481Z" fill="#FFFFFF"/><path d="M685.577 349.839C685.577 348.466 685.397 346.226 684.385 344.131 683.319 341.963 681.838 340.789 681.64 340.789 681.567 340.789 681.477 340.826 681.477 340.934 681.477 340.988 681.477 341.024 681.784 341.331 683.59 343.156 684.602 346.136 684.602 349.821 684.602 353.325 683.753 356.341 681.658 358.473 681.477 358.635 681.477 358.672 681.477 358.726 681.477 358.834 681.567 358.87 681.64 358.87 681.874 358.87 683.356 357.57 684.241 355.8 685.162 353.957 685.577 352.006 685.577 349.839Z" fill="#FFFFFF"/><path d="M698.583 350.164 703.568 350.164C703.821 350.164 704.146 350.164 704.146 349.839 704.146 349.496 703.839 349.496 703.568 349.496L698.583 349.496 698.583 344.51C698.583 344.257 698.583 343.932 698.257 343.932 697.914 343.932 697.914 344.239 697.914 344.51L697.914 349.496 692.929 349.496C692.676 349.496 692.351 349.496 692.351 349.821 692.351 350.164 692.658 350.164 692.929 350.164L697.914 350.164 697.914 355.149C697.914 355.402 697.914 355.727 698.239 355.727 698.583 355.727 698.583 355.42 698.583 355.149L698.583 350.164Z" fill="#FFFFFF"/><path d="M714.347 342.758C714.347 342.343 714.347 342.325 713.986 342.325 713.552 342.812 712.649 343.481 710.789 343.481L710.789 344.005C711.204 344.005 712.107 344.005 713.101 343.535L713.101 352.946C713.101 353.596 713.047 353.813 711.457 353.813L710.897 353.813 710.897 354.337C711.385 354.3 713.137 354.3 713.733 354.3 714.329 354.3 716.063 354.3 716.551 354.337L716.551 353.813 715.991 353.813C714.401 353.813 714.347 353.596 714.347 352.946L714.347 342.758Z" fill="#FFFFFF"/><path d="M629.398 362.733 717.988 362.733 717.988 363.455 629.398 363.455Z" fill="#FFFFFF"/><path d="M677.219 376.965 676.822 376.965C676.767 377.273 676.623 378.266 676.442 378.555 676.316 378.718 675.286 378.718 674.744 378.718L671.403 378.718C671.89 378.302 672.992 377.146 673.462 376.713 676.207 374.184 677.219 373.245 677.219 371.456 677.219 369.379 675.575 367.988 673.48 367.988 671.385 367.988 670.156 369.776 670.156 371.33 670.156 372.251 670.951 372.251 671.005 372.251 671.385 372.251 671.854 371.98 671.854 371.402 671.854 370.896 671.511 370.553 671.005 370.553 670.843 370.553 670.807 370.553 670.752 370.571 671.096 369.343 672.071 368.512 673.245 368.512 674.78 368.512 675.72 369.795 675.72 371.456 675.72 372.992 674.835 374.328 673.805 375.484L670.156 379.567 670.156 380 676.749 380 677.219 376.965Z" fill="#FFFFFF"/></g></svg>