<svg width="211" height="45" xmlns="http://www.w3.org/2000/svg" xmlns:xlink="http://www.w3.org/1999/xlink" xml:space="preserve" overflow="hidden"><defs><clipPath id="clip0"><rect x="534" y="337" width="211" height="45"/></clipPath></defs><g clip-path="url(#clip0)" transform="translate(-534 -337)"><path d="M539.343 359.379 542.376 359.379C544.867 359.379 547.358 357.538 547.358 355.48 547.358 354.072 546.167 352.79 543.892 352.79L538.315 352.79C537.971 352.79 537.809 352.79 537.809 353.133 537.809 353.313 537.971 353.313 538.242 353.313 539.343 353.313 539.343 353.458 539.343 353.656 539.343 353.693 539.343 353.801 539.271 354.072L536.834 363.783C536.672 364.415 536.636 364.596 535.372 364.596 535.029 364.596 534.849 364.596 534.849 364.921 534.849 365.119 535.011 365.119 535.119 365.119 535.462 365.119 535.823 365.083 536.166 365.083L538.278 365.083C538.621 365.083 539 365.119 539.343 365.119 539.488 365.119 539.686 365.119 539.686 364.776 539.686 364.596 539.524 364.596 539.253 364.596 538.17 364.596 538.152 364.469 538.152 364.289 538.152 364.199 538.17 364.072 538.188 363.982L539.343 359.379ZM540.643 354.017C540.806 353.35 540.878 353.313 541.582 353.313L543.369 353.313C544.723 353.313 545.842 353.747 545.842 355.101 545.842 355.57 545.607 357.104 544.777 357.935 544.47 358.26 543.604 358.946 541.961 358.946L539.416 358.946 540.643 354.017Z" fill="#FFFFFF"/><path d="M553.715 369.506C553.715 369.452 553.715 369.416 553.408 369.109 551.603 367.285 550.592 364.307 550.592 360.624 550.592 357.122 551.44 354.108 553.534 351.978 553.715 351.815 553.715 351.779 553.715 351.725 553.715 351.617 553.625 351.581 553.552 351.581 553.318 351.581 551.837 352.88 550.953 354.649 550.032 356.473 549.617 358.404 549.617 360.624 549.617 362.231 549.87 364.379 550.809 366.311 551.874 368.477 553.354 369.65 553.552 369.65 553.625 369.65 553.715 369.614 553.715 369.506Z" fill="#FFFFFF"/><path d="M557.556 363.783C557.393 364.415 557.357 364.596 556.094 364.596 555.751 364.596 555.57 364.596 555.57 364.921 555.57 365.119 555.678 365.119 556.039 365.119L561.762 365.119C565.408 365.119 568.965 361.346 568.965 357.321 568.965 354.722 567.412 352.79 564.831 352.79L559.036 352.79C558.693 352.79 558.531 352.79 558.531 353.133 558.531 353.313 558.693 353.313 558.964 353.313 560.065 353.313 560.065 353.458 560.065 353.656 560.065 353.693 560.065 353.801 559.993 354.072L557.556 363.783ZM561.365 354.017C561.527 353.35 561.599 353.313 562.303 353.313L564.289 353.313C565.986 353.313 567.538 354.234 567.538 356.725 567.538 357.628 567.177 360.769 565.426 362.755 564.921 363.35 563.549 364.596 561.473 364.596L559.415 364.596C559.162 364.596 559.126 364.596 559.018 364.578 558.819 364.56 558.801 364.524 558.801 364.379 558.801 364.253 558.838 364.145 558.874 363.982L561.365 354.017Z" fill="#FFFFFF"/><path d="M574.979 360.624C574.979 359.253 574.799 357.014 573.788 354.92 572.723 352.754 571.242 351.581 571.044 351.581 570.972 351.581 570.881 351.617 570.881 351.725 570.881 351.779 570.881 351.815 571.188 352.122 572.993 353.945 574.004 356.924 574.004 360.606 574.004 364.108 573.156 367.123 571.062 369.253 570.881 369.416 570.881 369.452 570.881 369.506 570.881 369.614 570.972 369.65 571.044 369.65 571.278 369.65 572.759 368.351 573.643 366.581 574.564 364.74 574.979 362.791 574.979 360.624Z" fill="#FFFFFF"/><path d="M593.961 359.271C594.214 359.271 594.539 359.271 594.539 358.946 594.539 358.603 594.232 358.603 593.961 358.603L583.329 358.603C583.076 358.603 582.751 358.603 582.751 358.928 582.751 359.271 583.058 359.271 583.329 359.271L593.961 359.271ZM593.961 362.628C594.214 362.628 594.539 362.628 594.539 362.303 594.539 361.96 594.232 361.96 593.961 361.96L583.329 361.96C583.076 361.96 582.751 361.96 582.751 362.285 582.751 362.628 583.058 362.628 583.329 362.628L593.961 362.628Z" fill="#FFFFFF"/><path d="M625.747 341.336C625.747 340.921 625.747 340.903 625.386 340.903 624.953 341.39 624.05 342.058 622.191 342.058L622.191 342.582C622.606 342.582 623.509 342.582 624.502 342.112L624.502 351.517C624.502 352.167 624.448 352.384 622.859 352.384L622.299 352.384 622.299 352.907C622.787 352.871 624.538 352.871 625.134 352.871 625.729 352.871 627.462 352.871 627.95 352.907L627.95 352.384 627.39 352.384C625.801 352.384 625.747 352.167 625.747 351.517L625.747 341.336Z" fill="#FFFFFF"/><path d="M602.343 360.245 647.592 360.245 647.592 360.967 602.343 360.967Z" fill="#FFFFFF"/><path d="M611.513 372.705C611.748 372.705 612.344 372.705 612.344 372.127 612.344 371.73 612.001 371.73 611.676 371.73L607.686 371.73C604.979 371.73 603.029 374.745 603.029 376.875 603.029 378.409 604.022 379.691 605.646 379.691 607.777 379.691 610.105 377.398 610.105 374.691 610.105 373.987 609.943 373.301 609.509 372.705L611.513 372.705ZM605.664 379.33C604.744 379.33 604.076 378.626 604.076 377.38 604.076 376.297 604.726 372.705 607.379 372.705 608.156 372.705 609.022 373.084 609.022 374.474 609.022 375.106 608.733 376.622 608.101 377.669 607.452 378.734 606.477 379.33 605.664 379.33Z" fill="#FFFFFF"/><path d="M620.06 380.012 616.883 372.99C616.757 372.701 616.666 372.701 616.612 372.701 616.594 372.701 616.504 372.701 616.305 372.845L614.59 374.145C614.356 374.325 614.356 374.38 614.356 374.434 614.356 374.524 614.41 374.632 614.536 374.632 614.645 374.632 614.951 374.38 615.15 374.235 615.258 374.145 615.529 373.946 615.728 373.802L619.284 381.618C619.41 381.907 619.5 381.907 619.663 381.907 619.934 381.907 619.988 381.799 620.114 381.546L628.31 364.578C628.436 364.325 628.436 364.253 628.436 364.216 628.436 364.036 628.292 363.855 628.075 363.855 627.931 363.855 627.804 363.946 627.66 364.235L620.06 380.012Z" fill="#FFFFFF"/><path d="M628.08 363.855 647.592 363.855 647.592 364.578 628.08 364.578Z" fill="#FFFFFF"/><path d="M636.023 376.478 635.626 376.478C635.571 376.785 635.427 377.777 635.247 378.066 635.12 378.229 634.091 378.229 633.55 378.229L630.21 378.229C630.698 377.813 631.799 376.658 632.268 376.225 635.012 373.698 636.023 372.759 636.023 370.972 636.023 368.896 634.38 367.506 632.286 367.506 630.192 367.506 628.965 369.293 628.965 370.845 628.965 371.766 629.759 371.766 629.813 371.766 630.192 371.766 630.661 371.495 630.661 370.918 630.661 370.412 630.318 370.069 629.813 370.069 629.651 370.069 629.614 370.069 629.56 370.087 629.903 368.86 630.878 368.029 632.051 368.029 633.586 368.029 634.524 369.311 634.524 370.972 634.524 372.506 633.64 373.842 632.611 374.997L628.965 379.077 628.965 379.51 635.553 379.51 636.023 376.478Z" fill="#FFFFFF"/><path d="M641.593 372.705 643.633 372.705C643.146 374.727 642.839 376.044 642.839 377.489 642.839 377.741 642.839 379.691 643.579 379.691 643.958 379.691 644.283 379.348 644.283 379.041 644.283 378.951 644.283 378.915 644.156 378.644 643.669 377.398 643.669 375.846 643.669 375.719 643.669 375.611 643.669 374.329 644.048 372.705L646.07 372.705C646.305 372.705 646.9 372.705 646.9 372.127 646.9 371.73 646.557 371.73 646.232 371.73L640.293 371.73C639.878 371.73 639.265 371.73 638.434 372.615 637.965 373.138 637.387 374.095 637.387 374.203 637.387 374.311 637.477 374.348 637.586 374.348 637.712 374.348 637.73 374.293 637.82 374.185 638.759 372.705 639.698 372.705 640.149 372.705L641.178 372.705C640.781 374.059 640.33 375.629 638.849 378.788 638.705 379.077 638.705 379.113 638.705 379.221 638.705 379.601 639.03 379.691 639.192 379.691 639.716 379.691 639.86 379.221 640.077 378.463 640.366 377.543 640.366 377.507 640.546 376.785L641.593 372.705Z" fill="#FFFFFF"/><path d="M666.866 340.621C666.289 340.802 665.693 341.361 665.206 342.191 664.447 343.473 663.924 345.062 663.003 348.798 661.379 355.405 660.277 360.731 659.104 367.608 658.021 373.962 657.299 377.23 656.577 378.872 656.378 379.36 655.981 379.938 655.783 380.082 655.566 380.244 655.024 380.226 654.663 380.064 654.302 379.883 654.248 379.811 654.465 379.757 655.205 379.613 655.422 378.638 654.808 378.169 654.645 378.042 654.555 378.024 654.266 378.024 653.995 378.024 653.905 378.042 653.725 378.169 653.454 378.385 653.364 378.638 653.4 379.035 653.508 380.244 655.024 381.021 656.18 380.461 656.631 380.244 657.209 379.649 657.57 379.017 658.382 377.663 658.887 376.075 659.916 371.85 661.505 365.262 662.516 360.37 663.671 353.582 664.754 347.228 665.494 343.961 666.198 342.318 666.415 341.849 666.794 341.253 667.011 341.108 667.227 340.964 667.769 340.964 668.112 341.126 668.473 341.307 668.527 341.379 668.31 341.433 667.588 341.578 667.372 342.553 667.967 343.022 668.148 343.148 668.238 343.184 668.509 343.184 668.798 343.184 668.888 343.148 669.051 343.022 669.321 342.805 669.43 342.553 669.393 342.173 669.303 341.072 667.985 340.296 666.866 340.621Z" fill="#FFFFFF"/><path d="M672.468 344.362C672.36 344.819 672.336 344.915 671.445 344.915 671.216 344.915 671.072 344.915 671.072 345.144 671.072 345.312 671.228 345.312 671.433 345.312L675.573 345.312C678.112 345.312 680.639 342.881 680.639 340.198 680.639 338.356 679.412 337.093 677.619 337.093L673.407 337.093C673.19 337.093 673.034 337.093 673.034 337.322 673.034 337.49 673.178 337.49 673.383 337.49 673.78 337.49 674.129 337.49 674.129 337.683 674.129 337.731 674.117 337.743 674.081 337.899L672.468 344.362ZM675.128 337.935C675.236 337.526 675.248 337.49 675.741 337.49L677.198 337.49C678.606 337.49 679.556 338.296 679.556 339.764 679.556 340.162 679.388 342.123 678.341 343.471 677.811 344.145 676.776 344.915 675.356 344.915L673.563 344.915C673.455 344.891 673.419 344.891 673.419 344.807 673.419 344.711 673.443 344.614 673.467 344.542L675.128 337.935Z" fill="#FFFFFF"/><path d="M670.846 378.684C671.039 378.684 671.304 378.684 671.304 378.408 671.304 378.131 671.039 378.131 670.846 378.131L663.951 378.131C663.758 378.131 663.493 378.131 663.493 378.408 663.493 378.684 663.758 378.684 663.951 378.684L670.846 378.684Z" fill="#FFFFFF"/><path d="M678.879 378.119C678.169 377.264 678.073 377.168 677.652 376.855 677.098 376.434 676.364 376.109 675.57 376.109 674.101 376.109 673.09 377.397 673.09 378.829 673.09 380.237 674.089 381.536 675.521 381.536 676.508 381.536 677.664 381.019 678.662 379.527 679.372 380.381 679.469 380.477 679.89 380.79 680.444 381.212 681.178 381.536 681.972 381.536 683.44 381.536 684.451 380.249 684.451 378.817 684.451 377.409 683.452 376.109 682.02 376.109 681.033 376.109 679.878 376.626 678.879 378.119ZM679.24 378.564C679.697 377.806 680.684 376.566 682.104 376.566 683.392 376.566 684.114 377.734 684.114 378.817 684.114 379.984 683.224 380.887 682.164 380.887 681.105 380.887 680.395 380.008 679.24 378.564ZM678.301 379.081C677.844 379.84 676.857 381.079 675.437 381.079 674.149 381.079 673.427 379.912 673.427 378.829 673.427 377.661 674.318 376.759 675.377 376.759 676.436 376.759 677.146 377.637 678.301 379.081Z" fill="#FFFFFF"/><path d="M692.159 360.931C692.647 360.931 693.874 360.895 694.741 360.57 696.113 360.047 696.239 359 696.239 358.675 696.239 357.881 695.553 357.159 694.362 357.159 692.466 357.159 689.74 358.873 689.74 362.087 689.74 363.982 690.823 365.3 692.466 365.3 694.921 365.3 696.474 363.386 696.474 363.152 696.474 363.043 696.365 362.953 696.293 362.953 696.239 362.953 696.221 362.971 696.058 363.134 694.903 364.668 693.188 364.939 692.502 364.939 691.473 364.939 690.932 364.126 690.932 362.791 690.932 362.538 690.932 362.087 691.203 360.931L692.159 360.931ZM691.293 360.57C692.069 357.79 693.784 357.52 694.362 357.52 695.156 357.52 695.697 357.989 695.697 358.675 695.697 360.57 692.809 360.57 692.051 360.57L691.293 360.57Z" fill="#FFFFFF"/><path d="M705.532 354.233C705.724 354.233 705.989 354.233 705.989 353.957 705.989 353.68 705.724 353.68 705.532 353.68L698.636 353.68C698.443 353.68 698.178 353.68 698.178 353.957 698.178 354.233 698.443 354.233 698.636 354.233L705.532 354.233Z" fill="#FFFFFF"/><path d="M715.301 348.516 716.285 348.516C716.465 348.516 716.591 348.516 716.591 348.29 716.591 348.155 716.474 348.155 716.312 348.155L715.391 348.155 715.707 346.909C715.743 346.774 715.743 346.72 715.743 346.711 715.743 346.494 715.571 346.404 715.427 346.404 715.319 346.404 715.084 346.467 715.003 346.756L714.651 348.155 713.676 348.155C713.487 348.155 713.477 348.164 713.441 348.191 713.396 348.227 713.36 348.345 713.36 348.39 713.387 348.516 713.468 348.516 713.649 348.516L714.561 348.516 714.028 350.646C713.974 350.854 713.902 351.161 713.902 351.269 713.902 351.792 714.371 352.135 714.922 352.135 715.96 352.135 716.573 350.899 716.573 350.745 716.573 350.718 716.555 350.619 716.402 350.619 716.285 350.619 716.266 350.664 716.221 350.772 715.914 351.449 715.4 351.838 714.958 351.838 714.624 351.838 714.615 351.504 714.615 351.386 714.615 351.26 714.615 351.242 714.66 351.07L715.301 348.516Z" fill="#FFFFFF"/><path d="M722.032 346.57 721.698 346.57C721.68 346.696 721.59 347.292 721.454 347.391 721.391 347.445 720.66 347.445 720.534 347.445L718.846 347.445 720.001 346.507C720.308 346.263 721.111 345.685 721.391 345.414 721.662 345.144 722.032 344.683 722.032 344.042 722.032 342.914 721.012 342.255 719.803 342.255 718.638 342.255 717.826 343.023 717.826 343.871 717.826 344.331 718.214 344.385 718.313 344.385 718.539 344.385 718.801 344.223 718.801 343.898 718.801 343.699 718.683 343.411 718.286 343.411 718.494 342.95 719.044 342.607 719.667 342.607 720.615 342.607 721.12 343.311 721.12 344.042 721.12 344.683 720.696 345.342 720.064 345.92L717.925 347.878C717.835 347.969 717.826 347.978 717.826 348.258L721.752 348.258 722.032 346.57Z" fill="#FFFFFF"/><path d="M708.87 353.686 727.445 353.686 727.445 354.227 708.87 354.227Z" fill="#FFFFFF"/><path d="M713.726 361.488 713.392 361.488C713.374 361.615 713.284 362.21 713.148 362.31 713.085 362.364 712.354 362.364 712.227 362.364L710.54 362.364 711.695 361.425C712.002 361.181 712.805 360.604 713.085 360.333 713.356 360.062 713.726 359.602 713.726 358.961 713.726 357.833 712.706 357.174 711.496 357.174 710.332 357.174 709.52 357.941 709.52 358.79 709.52 359.25 709.908 359.304 710.007 359.304 710.233 359.304 710.495 359.142 710.495 358.817 710.495 358.618 710.377 358.329 709.98 358.329 710.188 357.869 710.738 357.526 711.361 357.526 712.309 357.526 712.814 358.23 712.814 358.961 712.814 359.602 712.39 360.261 711.758 360.838L709.619 362.797C709.529 362.887 709.52 362.896 709.52 363.176L713.446 363.176 713.726 361.488Z" fill="#FFFFFF"/><path d="M720.009 359.927C720.117 359.927 720.505 359.927 720.505 359.557 720.505 359.286 720.253 359.286 720.099 359.286L717.653 359.286C716.182 359.286 715.045 360.658 715.045 361.759 715.045 362.689 715.776 363.266 716.678 363.266 717.924 363.266 719.215 362.201 719.215 360.884 719.215 360.477 719.088 360.152 718.935 359.927L720.009 359.927ZM716.696 362.969C716.389 362.969 715.74 362.842 715.74 361.985 715.74 361.398 716.046 359.927 717.509 359.927 718.032 359.927 718.501 360.107 718.501 360.802 718.501 361.064 718.384 361.849 717.915 362.382 717.572 362.761 717.102 362.969 716.696 362.969Z" fill="#FFFFFF"/><path d="M726.033 358.898 725.699 358.898C725.681 359.024 725.591 359.62 725.456 359.719 725.393 359.773 724.661 359.773 724.535 359.773L722.847 359.773 724.003 358.835C724.309 358.591 725.113 358.013 725.393 357.742 725.663 357.472 726.033 357.011 726.033 356.37 726.033 355.242 725.013 354.583 723.804 354.583 722.64 354.583 721.827 355.351 721.827 356.199 721.827 356.659 722.215 356.713 722.315 356.713 722.54 356.713 722.802 356.551 722.802 356.226 722.802 356.027 722.685 355.739 722.288 355.739 722.495 355.278 723.046 354.935 723.669 354.935 724.616 354.935 725.122 355.639 725.122 356.37 725.122 357.011 724.698 357.67 724.066 358.248L721.927 360.206C721.836 360.297 721.827 360.306 721.827 360.586L725.754 360.586 726.033 358.898Z" fill="#FFFFFF"/><path d="M739.083 353.043C739.101 352.97 739.137 352.862 739.137 352.772 739.137 352.591 738.957 352.591 738.921 352.591 738.903 352.591 738.018 352.664 737.928 352.682 737.621 352.7 737.35 352.736 737.025 352.754 736.574 352.79 736.448 352.808 736.448 353.133 736.448 353.313 736.592 353.313 736.845 353.313 737.729 353.313 737.747 353.476 737.747 353.656 737.747 353.765 737.711 353.909 737.693 353.963L736.592 358.35C736.393 357.881 735.906 357.159 734.967 357.159 732.927 357.159 730.725 359.794 730.725 362.466 730.725 364.253 731.772 365.3 733 365.3 733.993 365.3 734.841 364.524 735.346 363.928 735.527 364.993 736.375 365.3 736.917 365.3 737.458 365.3 737.892 364.975 738.217 364.325 738.505 363.711 738.758 362.61 738.758 362.538 738.758 362.448 738.686 362.375 738.578 362.375 738.415 362.375 738.397 362.466 738.325 362.736 738.054 363.802 737.711 364.939 736.971 364.939 736.448 364.939 736.411 364.469 736.411 364.108 736.411 364.036 736.411 363.657 736.538 363.152L739.083 353.043ZM735.437 362.971C735.346 363.278 735.346 363.314 735.094 363.657 734.697 364.163 733.902 364.939 733.054 364.939 732.314 364.939 731.899 364.271 731.899 363.206 731.899 362.213 732.458 360.191 732.801 359.433 733.415 358.169 734.263 357.52 734.967 357.52 736.159 357.52 736.393 359 736.393 359.144 736.393 359.162 736.339 359.397 736.321 359.433L735.437 362.971Z" fill="#FFFFFF"/><path d="M742.815 357.863 744.476 357.863C744.819 357.863 744.999 357.863 744.999 357.538 744.999 357.339 744.891 357.339 744.53 357.339L742.941 357.339 743.609 354.703C743.682 354.451 743.682 354.415 743.682 354.288 743.682 353.999 743.447 353.837 743.212 353.837 743.068 353.837 742.653 353.891 742.508 354.469L741.804 357.339 740.107 357.339C739.746 357.339 739.584 357.339 739.584 357.682 739.584 357.863 739.71 357.863 740.053 357.863L741.66 357.863 740.468 362.628C740.324 363.26 740.27 363.44 740.27 363.675 740.27 364.524 740.865 365.3 741.876 365.3 743.7 365.3 744.674 362.664 744.674 362.538 744.674 362.43 744.602 362.375 744.494 362.375 744.458 362.375 744.386 362.375 744.349 362.448 744.331 362.466 744.313 362.484 744.187 362.773 743.808 363.675 742.977 364.939 741.93 364.939 741.389 364.939 741.353 364.487 741.353 364.09 741.353 364.072 741.353 363.729 741.407 363.513L742.815 357.863Z" fill="#FFFFFF"/></g></svg>